<svg height="512" viewBox="0 0 512 512" width="512" xmlns="http://www.w3.org/2000/svg"><g id="filled_outline" data-name="filled outline"><path d="m280 56 12.616 4.2a16.65 16.65 0 0 1 11.384 15.8 16.65 16.65 0 0 1 -11.384 15.8l-20.616 4.2v-8z" fill="#b9b9b9"/><path d="m307.138 117.428-27.138-5.428-8-24v-16h-26.667l-5.333-8-32-16v40h8l16 16 8-5.333v21.333l-34.63 5.772a16 16 0 0 0 -13.37 15.782v47.905a30 30 0 0 0 16.584 26.833l15.416 7.708-.2.6a74 74 0 0 0 0 46.8l.082.245a132.008 132.008 0 0 1 6.517 49.976l-6.399 102.379h80a121.671 121.671 0 0 1 -4.735-98.089l5.526-14.368a108 108 0 0 0 -.526-78.88l-.265-.663 11.314-11.314a16 16 0 0 0 4.686-11.313v-76.256a16 16 0 0 0 -12.862-15.689z" fill="#dbdbdb"/><path d="m228.92 204.34-4.92 19.66-14.54-7.27 4.61-23.06a28.754 28.754 0 0 0 -2.48-18.49 34.061 34.061 0 0 1 -3.59-15.21v-15.97h8v13.71a34.045 34.045 0 0 0 5.71 18.86l3.24 4.85a28.778 28.778 0 0 1 3.97 22.92z" fill="#dbdbdb"/><path d="m299.26 325.91a121.682 121.682 0 0 0 4.74 98.09h-80l6.4-102.38a131.954 131.954 0 0 0 -6.52-49.97l-.08-.25a74.074 74.074 0 0 1 -3.8-23.4h27.21a42 42 0 0 0 40.74-31.81l.05-.19 11.492 14.018a50.66 50.66 0 0 1 10.62 22.707 108 108 0 0 1 -5.322 58.815z" fill="#dbdbdb"/><path d="m299.26 325.91a121.682 121.682 0 0 0 4.74 98.09h-80l6.4-102.38a131.954 131.954 0 0 0 -6.52-49.97l-.08-.25a74.074 74.074 0 0 1 -3.8-23.4h27.21a42 42 0 0 0 40.74-31.81l.05-.19 16 16 2.38 6.42a108 108 0 0 1 -1.59 73.12z" fill="#cbcbcb"/><path d="m291.32 375.99-6.34 6.34a127 127 0 0 1 -59.04 33.43 7.967 7.967 0 0 1 -1.44.22l1.04-16.68a111.025 111.025 0 0 0 48.13-28.28l18.72-18.73a122.131 122.131 0 0 0 -1.07 23.7z" fill="#cbcbcb"/><path d="m309.35 296.46a106.273 106.273 0 0 1 -4.56 15.08l-5.53 14.37c-.43 1.12-.84 2.24-1.23 3.37l-5.05 5.05a127 127 0 0 1 -59.04 33.43 8.132 8.132 0 0 1 -1.95.24 8.014 8.014 0 0 1 -4.41-1.32l.87-13.84a7.213 7.213 0 0 1 1.61-.6 111.155 111.155 0 0 0 51.61-29.22l24.67-24.68a7.746 7.746 0 0 1 3.01-1.88z" fill="#cbcbcb"/><path d="m230.31 303.9 12.02-6.01a82.171 82.171 0 0 0 45.67-73.89 7.941 7.941 0 0 1 1.89-5.16l13.07 19.6a98 98 0 0 1 -53.47 73.76l-13.91 6.96a8.021 8.021 0 0 1 -3.57.84 7.757 7.757 0 0 1 -1.52-.15 128.59 128.59 0 0 0 -.18-15.95z" fill="#cbcbcb"/><path d="m208 424h112v32h-112z" fill="#b9b9b9"/><path d="m208 440h112v16h-112z" fill="#a0a0a0"/><g fill="#b9b9b9"><path d="m192 456h144v32h-144z"/><path d="m309.35 296.46a106.273 106.273 0 0 1 -4.56 15.08l-5.53 14.37c-.43 1.12-.84 2.24-1.23 3.37l-5.05 5.05a127 127 0 0 1 -59.04 33.43 8.132 8.132 0 0 1 -1.95.24 8.014 8.014 0 0 1 -4.41-1.32l.87-13.84a7.213 7.213 0 0 1 1.61-.6 111.155 111.155 0 0 0 51.61-29.22l24.67-24.68a7.746 7.746 0 0 1 3.01-1.88z"/><path d="m291.32 375.99-6.34 6.34a127 127 0 0 1 -59.04 33.43 7.967 7.967 0 0 1 -1.44.22l1.04-16.68a111.025 111.025 0 0 0 48.13-28.28l18.72-18.73a122.131 122.131 0 0 0 -1.07 23.7z"/><path d="m208 48a24 24 0 0 1 24-24h17.889a30.111 30.111 0 0 1 30.111 30.111 75.779 75.779 0 0 1 -8 33.889 29.9 29.9 0 0 1 -24.875-13.313l-7.125-10.687z"/><path d="m302.96 238.44a98 98 0 0 1 -53.47 73.76l-13.91 6.96a8.021 8.021 0 0 1 -3.57.84 7.757 7.757 0 0 1 -1.52-.15 128.59 128.59 0 0 0 -.18-15.95l12.02-6.01a82.171 82.171 0 0 0 45.67-73.89l.029-7.951 15.971 11.951z"/></g><path d="m192 472h144v16h-144z" fill="#a0a0a0"/><path d="m228.92 204.34-4.92 19.66-14.54-7.27 4.61-23.06a28.754 28.754 0 0 0 -2.48-18.49 34.061 34.061 0 0 1 -3.59-15.21v-11.97a4 4 0 0 1 4-4 4 4 0 0 1 4 4v9.71a34.045 34.045 0 0 0 5.71 18.86l3.24 4.85a28.778 28.778 0 0 1 3.97 22.92z" fill="#cbcbcb"/><path d="m288.029 216.049-5.666-16.972a18 18 0 0 1 .974-13.75l2.763-5.527a18.013 18.013 0 0 0 1.9-8.05v-23.75a4 4 0 0 1 4-4 4 4 0 0 1 4 4v23.751l-.9 19.822a26.022 26.022 0 0 0 5.178 16.8l11.722 15.627-8 8z" fill="#cbcbcb"/><path d="m216.484 416h-8.484a8 8 0 0 0 -8 8v24h-8a8 8 0 0 0 -8 8v32a8 8 0 0 0 8 8h144a8 8 0 0 0 8-8v-32a8 8 0 0 0 -8-8h-8v-24a8 8 0 0 0 -8-8h-10.927a113.939 113.939 0 0 1 -2.342-87.217l5.527-14.368a115.626 115.626 0 0 0 1.059-80.415l7.653-7.653a23.843 23.843 0 0 0 7.03-16.97v-76.26a24.065 24.065 0 0 0 -19.293-23.534l-22.586-4.517-1.18-3.541 9.273-1.892a7.851 7.851 0 0 0 .932-.249 24.649 24.649 0 0 0 0-46.768l-7.35-2.45a38.165 38.165 0 0 0 -37.907-34.166h-17.889a32.036 32.036 0 0 0 -32 32v40a8 8 0 0 0 8 8h4.687l13.656 13.657a7.991 7.991 0 0 0 5.657 2.343v1.223l-27.945 4.658a23.923 23.923 0 0 0 -20.055 23.673v47.905a37.792 37.792 0 0 0 21.006 33.988l9.437 4.719a82.584 82.584 0 0 0 1.768 45.765l.081.244a123.416 123.416 0 0 1 6.122 46.948zm111.516 48v16h-128v-16zm-29.946-157.368-16.387 16.388a111.116 111.116 0 0 1 -45.05 27.354s1.92-31.233 1.966-32.721l10.907-5.453a98.007 98.007 0 0 0 51.482-63.782 99.6 99.6 0 0 1 -2.918 58.214zm-66.583-37.516-.081-.245a65.489 65.489 0 0 1 -2.883-12.871h18.7a49.913 49.913 0 0 0 39.907-19.868 82.082 82.082 0 0 1 -44.781 61.757l-4.314 2.157a139.544 139.544 0 0 0 -6.548-30.93zm4.086 98.212a127.112 127.112 0 0 0 50.943-26.955 129.754 129.754 0 0 0 -3.048 20.862l-9.784 9.785a111.576 111.576 0 0 1 -39.94 25.6zm-2.909 46.557.027-.006a127.563 127.563 0 0 0 51.246-30.519 129.821 129.821 0 0 0 7.829 32.64h-59.234zm54.374-347.112 3.063 1.021a8.649 8.649 0 0 1 .382 16.274l-8.724 1.78a84.406 84.406 0 0 0 5.279-19.075zm-55.022-34.773h17.889a22.136 22.136 0 0 1 22.111 22.111 68.16 68.16 0 0 1 -4.916 25.333 21.846 21.846 0 0 1 -13.3-9.2l-7.125-10.687a7.994 7.994 0 0 0 -3.078-2.717l-26.9-13.451a16.027 16.027 0 0 1 15.319-11.389zm-10.343 50.343a8 8 0 0 0 -5.657-2.343v-19.056l18.522 9.262 5.946 8.919 1.106 1.659a6.007 6.007 0 0 1 -1.664 8.321l-4.372 2.914-.026.018-2.5 1.665zm-9.235 88.39a24.067 24.067 0 0 0 5.9 7.549l2.864 11.458a35.134 35.134 0 0 1 -.754 19.661l-1.107 3.319-7.166-3.583a21.881 21.881 0 0 1 -12.159-19.678v-47.9a7.976 7.976 0 0 1 6.685-7.891l34.63-5.772a8 8 0 0 0 6.685-7.896v-17.052l.789-.526a21.857 21.857 0 0 0 7.988-9.619 37.772 37.772 0 0 0 9.3 2.716l6.337 19.011a8 8 0 0 0 6.02 5.315l27.138 5.427a8.022 8.022 0 0 1 6.428 7.845v76.256a7.949 7.949 0 0 1 -2.343 5.657l-5.657 5.656-2.342-2.342-7.038-7.038a40.38 40.38 0 0 1 -2.518-26.718l1.398-5.588a21.4 21.4 0 0 0 1.35-31.465l-9.19-9.19a8 8 0 0 0 -11.314 11.314l9.19 9.19a5.362 5.362 0 0 1 -3.794 9.151h-7.742a8 8 0 0 0 0 16h3.871a56.39 56.39 0 0 0 3.623 32.643 33.944 33.944 0 0 1 -32.286 23.357h-18.7a65.489 65.489 0 0 1 2.883-12.871l.2-.6 4.023-12.069a51.1 51.1 0 0 0 1.1-28.6l-.468-1.86h3.754a8 8 0 0 0 0-16h-6.111a7.956 7.956 0 0 1 -7.156-4.422 8.04 8.04 0 0 1 0-7.156l4.422-8.844a8 8 0 1 0 -14.31-7.156l-4.423 8.845a24.117 24.117 0 0 0 0 21.466zm99.578 261.267v16h-96v-16z"/></g></svg>